<svg version="1.1" id="Layer_1" xmlns="http://www.w3.org/2000/svg" xmlns:xlink="http://www.w3.org/1999/xlink" x="0px" y="0px"
	 width="100%" viewBox="0 0 1024 1024" enable-background="new 0 0 1024 1024" xml:space="preserve">
<path fill="#000000" opacity="1.000000" stroke="none" 
	d="
M524.000000,1.000004 
	C690.983093,1.000000 857.966248,1.000000 1024.974609,1.000000 
	C1024.974609,342.281982 1024.974609,683.563965 1024.974609,1024.922974 
	C683.752502,1024.922974 342.505035,1024.922974 1.128763,1024.922974 
	C1.128763,683.787048 1.128763,342.574005 1.128763,1.000000 
	C163.695862,1.000000 326.391968,1.000000 489.767090,1.381603 
	C489.773529,2.166842 489.148926,2.726321 488.421112,2.950416 
	C479.594727,5.667959 470.281525,7.340691 462.026733,11.251826 
	C449.840485,17.025707 438.364136,24.313284 426.657349,31.080563 
	C403.563812,44.430149 380.499817,57.831158 357.460297,71.273827 
	C332.434021,85.875679 307.467468,100.579796 282.441772,115.182610 
	C257.812897,129.553909 233.110229,143.798859 208.499847,158.201614 
	C185.431778,171.701752 162.343292,185.171860 139.450470,198.964981 
	C122.326149,209.282501 104.033646,217.692886 88.529854,230.690781 
	C78.534721,239.070374 70.935135,249.019150 65.607323,261.199585 
	C58.732494,274.884277 55.070488,289.153564 55.060196,304.107758 
	C54.960762,448.577362 54.905350,593.047180 55.094215,737.516602 
	C55.125652,761.563843 66.303284,780.574829 86.280327,793.276611 
	C104.884445,805.105408 124.613052,815.170776 143.889709,825.935364 
	C165.054245,837.754150 186.302689,849.422913 207.451187,861.270203 
	C230.763367,874.329651 253.974899,887.568726 277.284271,900.633179 
	C295.676544,910.941711 314.176666,921.057556 332.581787,931.343262 
	C356.783875,944.868530 380.941895,958.472473 405.114655,972.050293 
	C420.888245,980.910217 436.665833,989.763062 452.419952,998.657471 
	C465.616180,1006.107910 478.967010,1013.285889 494.210480,1015.479126 
	C501.081665,1016.467834 508.096069,1016.461609 515.505615,1016.946289 
	C526.714417,1017.438293 537.055908,1015.345886 547.327087,1012.361328 
	C564.289795,1007.432251 578.451721,997.052917 593.594849,988.669006 
	C612.890869,977.985901 631.630920,966.299622 650.626465,955.072571 
	C663.471985,947.480347 676.324707,939.899780 689.211243,932.377380 
	C701.831238,925.010437 714.521179,917.763428 727.138062,910.391052 
	C740.158447,902.783081 753.112122,895.061096 766.123047,887.436829 
	C782.092346,878.078979 798.078003,868.748962 814.080322,859.447632 
	C829.093079,850.721313 844.171692,842.107971 859.157166,833.335083 
	C875.533752,823.747742 891.611450,813.625244 908.228088,804.478271 
	C929.608215,792.709229 947.766541,778.054138 959.168152,755.793030 
	C966.196655,742.070251 970.863647,727.766785 970.885803,712.489624 
	C971.082031,577.181763 970.940796,441.873413 971.060974,306.565369 
	C971.079773,285.357635 965.145325,266.248077 952.966797,248.600128 
	C945.271606,237.184937 936.172852,227.471054 924.964905,220.158264 
	C914.655945,213.431961 903.732483,207.641357 893.029846,201.525925 
	C878.075195,192.980835 863.110535,184.451889 848.081848,176.038055 
	C835.158203,168.802719 822.102478,161.803574 809.170532,154.582779 
	C790.981262,144.426407 772.867920,134.134079 754.693054,123.951706 
	C739.513428,115.447411 724.266663,107.062790 709.095642,98.543236 
	C690.522644,88.113205 672.030029,77.539764 653.442444,67.135963 
	C635.707520,57.209427 617.885071,47.439201 600.120361,37.565723 
	C588.725769,31.232697 577.296448,24.957300 566.008972,18.437515 
	C553.370117,11.137160 540.452393,4.701386 525.698730,2.908793 
	C525.064514,2.831739 524.563232,1.661172 524.000000,1.000004 
z"/>
<path fill="#3DDC84" opacity="1.000000" stroke="none" 
	d="
M523.531372,1.000004 
	C524.563232,1.661172 525.064514,2.831739 525.698730,2.908793 
	C540.452393,4.701386 553.370117,11.137160 566.008972,18.437515 
	C577.296448,24.957300 588.725769,31.232697 600.120361,37.565723 
	C617.885071,47.439201 635.707520,57.209427 653.442444,67.135963 
	C672.030029,77.539764 690.522644,88.113205 709.095642,98.543236 
	C724.266663,107.062790 739.513428,115.447411 754.693054,123.951706 
	C772.867920,134.134079 790.981262,144.426407 809.170532,154.582779 
	C822.102478,161.803574 835.158203,168.802719 848.081848,176.038055 
	C863.110535,184.451889 878.075195,192.980835 893.029846,201.525925 
	C903.732483,207.641357 914.655945,213.431961 924.964905,220.158264 
	C936.172852,227.471054 945.271606,237.184937 952.670593,248.787338 
	C910.472351,274.164185 868.395264,299.022644 826.354187,323.941681 
	C810.781128,333.172333 795.292603,342.545502 779.564331,351.841339 
	C779.363037,351.828979 778.964294,351.752808 778.914185,351.422791 
	C772.492371,344.882812 767.019531,337.165833 759.587646,332.733337 
	C732.740417,316.721252 705.250366,301.785095 677.971436,286.499023 
	C657.075073,274.789520 636.134521,263.158875 615.207520,251.504059 
	C589.195618,237.017334 563.434998,222.051102 537.078064,208.221420 
	C517.028442,197.701233 496.383606,199.260788 476.867188,210.221802 
	C452.655060,223.820068 428.824463,238.098557 404.849976,252.118988 
	C359.916595,278.396271 315.018158,304.733398 270.060150,330.968445 
	C258.215515,337.880371 247.603714,345.910706 241.657074,358.910278 
	C207.341461,339.905945 173.350281,321.018524 139.385132,302.084442 
	C114.861977,288.413879 90.373436,274.681183 65.869453,260.976196 
	C70.935135,249.019150 78.534721,239.070374 88.529854,230.690781 
	C104.033646,217.692886 122.326149,209.282501 139.450470,198.964981 
	C162.343292,185.171860 185.431778,171.701752 208.499847,158.201614 
	C233.110229,143.798859 257.812897,129.553909 282.441772,115.182610 
	C307.467468,100.579796 332.434021,85.875679 357.460297,71.273827 
	C380.499817,57.831158 403.563812,44.430149 426.657349,31.080563 
	C438.364136,24.313284 449.840485,17.025707 462.026733,11.251826 
	C470.281525,7.340691 479.594727,5.667959 488.421112,2.950416 
	C489.148926,2.726321 489.773529,2.166842 490.223022,1.381603 
	C501.020905,1.000000 512.041809,1.000000 523.531372,1.000004 
z"/>
<path fill="#4285F4" opacity="1.000000" stroke="none" 
	d="
M779.765564,351.853699 
	C795.292603,342.545502 810.781128,333.172333 826.354187,323.941681 
	C868.395264,299.022644 910.472351,274.164185 952.831299,249.094467 
	C965.145325,266.248077 971.079773,285.357635 971.060974,306.565369 
	C970.940796,441.873413 971.082031,577.181763 970.885803,712.489624 
	C970.863647,727.766785 966.196655,742.070251 959.168152,755.793030 
	C947.766541,778.054138 929.608215,792.709229 908.228088,804.478271 
	C891.611450,813.625244 875.533752,823.747742 859.157166,833.335083 
	C844.171692,842.107971 829.093079,850.721313 814.080322,859.447632 
	C798.078003,868.748962 782.092346,878.078979 766.123047,887.436829 
	C753.112122,895.061096 740.158447,902.783081 727.138062,910.391052 
	C714.521179,917.763428 701.831238,925.010437 689.211243,932.377380 
	C676.324707,939.899780 663.471985,947.480347 650.626465,955.072571 
	C631.630920,966.299622 612.890869,977.985901 593.594849,988.669006 
	C578.451721,997.052917 564.289795,1007.432251 547.327087,1012.361328 
	C537.055908,1015.345886 526.714417,1017.438293 515.579712,1016.489075 
	C515.426208,983.339172 515.788025,950.686096 515.855408,918.032532 
	C515.924866,884.377991 515.707642,850.722839 516.087830,817.049072 
	C521.782471,816.166565 527.372009,816.199829 532.148499,814.245605 
	C541.033997,810.610413 549.686523,806.234802 558.012878,801.433472 
	C593.190002,781.148743 628.221619,760.611633 663.286438,740.132385 
	C693.895203,722.255615 724.441406,704.271484 755.082397,686.450195 
	C777.826660,673.221680 790.011719,653.904907 790.004333,627.279968 
	C789.982178,547.289429 790.002686,467.298920 789.972534,387.308411 
	C789.971375,384.161469 790.265747,380.802521 789.313049,377.907440 
	C786.423462,369.126495 782.988220,360.525085 779.765564,351.853699 
z"/>
<path fill="#083042" opacity="1.000000" stroke="none" 
	d="
M515.615845,817.067993 
	C515.707642,850.722839 515.924866,884.377991 515.855408,918.032532 
	C515.788025,950.686096 515.426208,983.339172 515.119629,1016.449646 
	C508.096069,1016.461609 501.081665,1016.467834 494.210480,1015.479126 
	C478.967010,1013.285889 465.616180,1006.107910 452.419952,998.657471 
	C436.665833,989.763062 420.888245,980.910217 405.114655,972.050293 
	C380.941895,958.472473 356.783875,944.868530 332.581787,931.343262 
	C314.176666,921.057556 295.676544,910.941711 277.284271,900.633179 
	C253.974899,887.568726 230.763367,874.329651 207.451187,861.270203 
	C186.302689,849.422913 165.054245,837.754150 143.889709,825.935364 
	C124.613052,815.170776 104.884445,805.105408 86.280327,793.276611 
	C66.303284,780.574829 55.125652,761.563843 55.094215,737.516602 
	C54.905350,593.047180 54.960762,448.577362 55.060196,304.107758 
	C55.070488,289.153564 58.732494,274.884277 65.607323,261.199585 
	C90.373436,274.681183 114.861977,288.413879 139.385132,302.084442 
	C173.350281,321.018524 207.341461,339.905945 241.698120,359.122437 
	C242.074738,359.431519 242.154892,359.856110 241.872742,360.093994 
	C237.050735,369.074829 235.143051,378.585785 235.123749,388.221619 
	C234.952209,473.833221 234.914520,559.445618 235.117599,645.057068 
	C235.156342,661.390076 242.641434,674.226746 256.949799,682.416443 
	C277.010803,693.898743 297.290192,704.999084 317.453552,716.303162 
	C346.898682,732.810730 376.327881,749.346741 405.756134,765.884399 
	C429.385651,779.163330 453.029449,792.417175 476.616089,805.771851 
	C488.517517,812.510315 500.939819,817.295471 515.061523,817.042847 
	C515.244690,817.072937 515.615845,817.067993 515.615845,817.067993 
z"/>
<path fill="#37BF6E" opacity="1.000000" stroke="none" 
	d="
M242.154892,359.856110 
	C242.154892,359.856110 242.074738,359.431519 242.033691,359.219391 
	C247.603714,345.910706 258.215515,337.880371 270.060150,330.968445 
	C315.018158,304.733398 359.916595,278.396271 404.849976,252.118988 
	C428.824463,238.098557 452.655060,223.820068 476.867188,210.221802 
	C496.383606,199.260788 517.028442,197.701233 537.078064,208.221420 
	C563.434998,222.051102 589.195618,237.017334 615.207520,251.504059 
	C636.134521,263.158875 657.075073,274.789520 677.971436,286.499023 
	C705.250366,301.785095 732.740417,316.721252 759.587646,332.733337 
	C767.019531,337.165833 772.492371,344.882812 778.625488,351.624390 
	C768.407104,358.117432 758.331482,363.925079 748.468323,370.073547 
	C729.866943,381.669250 711.387878,393.461273 692.574524,404.984344 
	C687.312073,397.023865 680.326355,391.583862 672.350281,387.127960 
	C626.096375,361.287628 579.858826,335.417511 533.687500,309.430084 
	C518.162476,300.691864 502.864960,300.686676 487.542084,309.642487 
	C440.953186,336.872406 394.384918,364.137665 347.792542,391.361633 
	C340.081177,395.867371 334.313416,402.074249 330.274719,410.159485 
	C322.060333,405.375977 314.327545,400.497833 306.385254,395.988647 
	C285.022949,383.860260 263.571167,371.889465 242.154892,359.856110 
z"/>
<path fill="#3870B2" opacity="1.000000" stroke="none" 
	d="
M692.858032,405.171692 
	C711.387878,393.461273 729.866943,381.669250 748.468323,370.073547 
	C758.331482,363.925079 768.407104,358.117432 778.675537,351.954376 
	C778.964294,351.752808 779.363037,351.828979 779.564331,351.841370 
	C782.988220,360.525085 786.423462,369.126495 789.313049,377.907440 
	C790.265747,380.802521 789.971375,384.161469 789.972534,387.308411 
	C790.002686,467.298920 789.982178,547.289429 790.004333,627.279968 
	C790.011719,653.904907 777.826660,673.221680 755.082397,686.450195 
	C724.441406,704.271484 693.895203,722.255615 663.286438,740.132385 
	C628.221619,760.611633 593.190002,781.148743 558.012878,801.433472 
	C549.686523,806.234802 541.033997,810.610413 532.148499,814.245605 
	C527.372009,816.199829 521.782471,816.166565 516.087830,817.049072 
	C515.615845,817.067993 515.244690,817.072937 515.104980,816.575073 
	C514.982727,782.438599 515.000122,748.800049 515.446167,715.103027 
	C522.179016,713.285400 529.182495,712.740723 534.677917,709.576660 
	C582.685913,681.935913 630.504456,653.962463 678.186951,625.762573 
	C690.325562,618.583618 697.031860,607.358887 698.353455,592.862183 
	C698.486755,591.717285 698.432068,590.797668 698.371216,589.417847 
	C698.364319,534.344727 698.363647,479.731781 698.516724,424.872131 
	C698.489075,423.726715 698.307678,422.827972 698.095215,421.526001 
	C696.328796,415.805756 694.593384,410.488739 692.858032,405.171692 
z"/>
<path fill="#041619" opacity="1.000000" stroke="none" 
	d="
M515.017578,715.161499 
	C515.000122,748.800049 514.982727,782.438599 514.921875,816.544922 
	C500.939819,817.295471 488.517517,812.510315 476.616089,805.771851 
	C453.029449,792.417175 429.385651,779.163330 405.756134,765.884399 
	C376.327881,749.346741 346.898682,732.810730 317.453552,716.303162 
	C297.290192,704.999084 277.010803,693.898743 256.949799,682.416443 
	C242.641434,674.226746 235.156342,661.390076 235.117599,645.057068 
	C234.914520,559.445618 234.952209,473.833221 235.123749,388.221619 
	C235.143051,378.585785 237.050735,369.074829 241.872742,360.093994 
	C263.571167,371.889465 285.022949,383.860260 306.385254,395.988647 
	C314.327545,400.497833 322.060333,405.375977 330.170135,410.537292 
	C329.302521,417.602051 327.187286,424.210876 327.156128,430.829529 
	C326.890808,487.137299 326.935822,543.446960 327.060638,599.755737 
	C327.086609,611.469971 332.274323,620.330994 342.910187,626.011230 
	C355.357605,632.658997 367.573669,639.739746 379.893219,646.627075 
	C397.631317,656.543762 415.394257,666.416321 433.105408,676.380859 
	C449.125153,685.393677 465.002808,694.662781 481.109436,703.516296 
	C491.693176,709.334045 502.073273,716.075745 515.017578,715.161499 
z"/>
<path fill="#D6F0FF" opacity="1.000000" stroke="none" 
	d="
M515.446167,715.103027 
	C502.073273,716.075745 491.693176,709.334045 481.109436,703.516296 
	C465.002808,694.662781 449.125153,685.393677 433.105408,676.380859 
	C415.394257,666.416321 397.631317,656.543762 379.893219,646.627075 
	C367.573669,639.739746 355.357605,632.658997 342.910187,626.011230 
	C332.274323,620.330994 327.086609,611.469971 327.060638,599.755737 
	C326.935822,543.446960 326.890808,487.137299 327.156128,430.829529 
	C327.187286,424.210876 329.302521,417.602051 330.556213,410.610840 
	C334.313416,402.074249 340.081177,395.867371 347.792542,391.361633 
	C394.384918,364.137665 440.953186,336.872406 487.542084,309.642487 
	C502.864960,300.686676 518.162476,300.691864 533.687500,309.430084 
	C579.858826,335.417511 626.096375,361.287628 672.350281,387.127960 
	C680.326355,391.583862 687.312073,397.023865 692.574463,404.984375 
	C694.593384,410.488739 696.328796,415.805756 698.021057,421.927002 
	C698.106323,423.527130 698.234619,424.322968 698.362915,425.118835 
	C698.363647,479.731781 698.364319,534.344727 698.229614,589.802979 
	C698.117981,591.461426 698.141663,592.274414 698.165405,593.087463 
	C697.031860,607.358887 690.325562,618.583618 678.186951,625.762573 
	C630.504456,653.962463 582.685913,681.935913 534.677917,709.576660 
	C529.182495,712.740723 522.179016,713.285400 515.446167,715.103027 
z"/>
<path fill="#7AA9E0" opacity="1.000000" stroke="none" 
	d="
M698.516724,424.872131 
	C698.234619,424.322968 698.106323,423.527130 698.052124,422.330261 
	C698.307678,422.827972 698.489075,423.726715 698.516724,424.872131 
z"/>
<path fill="#7AA9E0" opacity="1.000000" stroke="none" 
	d="
M698.353394,592.862183 
	C698.141663,592.274414 698.117981,591.461426 698.235840,590.263245 
	C698.432068,590.797668 698.486755,591.717285 698.353394,592.862183 
z"/>
</svg>